{
    "asset" : {
        "generator" : "Khronos glTF Blender I/O v1.8.19",
        "version" : "2.0"
    },
    "scene" : 0,
    "scenes" : [
        {
            "name" : "Scene",
            "nodes" : [
                0
            ]
        }
    ],
    "nodes" : [
        {
            "mesh" : 0,
            "name" : "Sphere",
            "translation" : [
                0.905746340751648,
                0,
                0
            ]
        }
    ],
    "materials" : [
        {
            "doubleSided" : true,
            "name" : "Material.001",
            "pbrMetallicRoughness" : {
                "baseColorFactor" : [
                    0.28100916743278503,
                    0.13927142322063446,
                    0.007074038498103619,
                    1
                ],
                "metallicFactor" : 0
            }
        }
    ],
    "meshes" : [
        {
            "name" : "Sphere",
            "primitives" : [
                {
                    "attributes" : {
                        "POSITION" : 0,
                        "NORMAL" : 1,
                        "TEXCOORD_0" : 2
                    },
                    "indices" : 3,
                    "material" : 0
                }
            ]
        }
    ],
    "accessors" : [
        {
            "bufferView" : 0,
            "componentType" : 5126,
            "count" : 1584,
            "max" : [
                3.2130918502807617,
                0.6143102645874023,
                1.2052483558654785
            ],
            "min" : [
                -2.6355738639831543,
                -0.7220643758773804,
                -1.5062193870544434
            ],
            "type" : "VEC3"
        },
        {
            "bufferView" : 1,
            "componentType" : 5126,
            "count" : 1584,
            "type" : "VEC3"
        },
        {
            "bufferView" : 2,
            "componentType" : 5126,
            "count" : 1584,
            "type" : "VEC2"
        },
        {
            "bufferView" : 3,
            "componentType" : 5123,
            "count" : 2160,
            "type" : "SCALAR"
        }
    ],
    "bufferViews" : [
        {
            "buffer" : 0,
            "byteLength" : 19008,
            "byteOffset" : 0
        },
        {
            "buffer" : 0,
            "byteLength" : 19008,
            "byteOffset" : 19008
        },
        {
            "buffer" : 0,
            "byteLength" : 12672,
            "byteOffset" : 38016
        },
        {
            "buffer" : 0,
            "byteLength" : 4320,
            "byteOffset" : 50688
        }
    ],
    "buffers" : [
        {
            "byteLength" : 55008,
            "uri" : "data:application/octet-stream;base64,"
        }
    ]
}
