{
    "asset" : {
        "generator" : "Khronos glTF Blender I/O v1.8.19",
        "version" : "2.0"
    },
    "scene" : 0,
    "scenes" : [
        {
            "name" : "Scene",
            "nodes" : [
                0
            ]
        }
    ],
    "nodes" : [
        {
            "mesh" : 0,
            "name" : "Cone",
            "rotation" : [
                -1,
                0,
                0,
                7.549790126404332e-08
            ],
            "translation" : [
                0,
                5.718278884887695,
                -12.98256778717041
            ]
        }
    ],
    "materials" : [
        {
            "doubleSided" : true,
            "name" : "Material.003",
            "pbrMetallicRoughness" : {
                "baseColorFactor" : [
                    0.03514716401696205,
                    0.030891472473740578,
                    0.01241288147866726,
                    1
                ],
                "metallicFactor" : 0
            }
        }
    ],
    "meshes" : [
        {
            "name" : "Cone",
            "primitives" : [
                {
                    "attributes" : {
                        "POSITION" : 0,
                        "NORMAL" : 1,
                        "TEXCOORD_0" : 2
                    },
                    "indices" : 3,
                    "material" : 0
                }
            ]
        }
    ],
    "accessors" : [
        {
            "bufferView" : 0,
            "componentType" : 5126,
            "count" : 1012,
            "max" : [
                12.619845390319824,
                6.865663051605225,
                4
            ],
            "min" : [
                -12,
                -20.57638931274414,
                -25.36234474182129
            ],
            "type" : "VEC3"
        },
        {
            "bufferView" : 1,
            "componentType" : 5126,
            "count" : 1012,
            "type" : "VEC3"
        },
        {
            "bufferView" : 2,
            "componentType" : 5126,
            "count" : 1012,
            "type" : "VEC2"
        },
        {
            "bufferView" : 3,
            "componentType" : 5123,
            "count" : 1578,
            "type" : "SCALAR"
        }
    ],
    "bufferViews" : [
        {
            "buffer" : 0,
            "byteLength" : 12144,
            "byteOffset" : 0
        },
        {
            "buffer" : 0,
            "byteLength" : 12144,
            "byteOffset" : 12144
        },
        {
            "buffer" : 0,
            "byteLength" : 8096,
            "byteOffset" : 24288
        },
        {
            "buffer" : 0,
            "byteLength" : 3156,
            "byteOffset" : 32384
        }
    ],
    "buffers" : [
        {
            "byteLength" : 35540,
            "uri" : "data:application/octet-stream;base64,"
        }
    ]
}
